<svg width="1141" height="469" viewBox="0 0 1141 469" fill="none" xmlns="http://www.w3.org/2000/svg">
<path d="M0 303V0.919983H30.72V303H0ZM46.08 303V0.919983H92.16V303H46.08ZM107.52 303V0.919983H122.88V303H107.52ZM83.968 468.376C68.608 468.376 56.1493 463.256 46.592 453.016L53.76 441.24L54.272 439.704L55.808 440.216C55.808 440.557 55.9787 441.24 56.32 442.264C56.32 442.947 56.6613 443.8 57.344 444.824C57.6853 445.507 58.368 446.189 59.392 446.872C66.56 453.016 75.4347 456.088 86.016 456.088C92.8427 456.088 98.6453 454.211 103.424 450.456C108.203 446.36 110.592 441.581 110.592 436.12C110.592 432.365 109.739 429.123 108.032 426.392C106.667 424.003 104.107 421.613 100.352 419.224C96.5973 416.835 90.7947 413.933 82.944 410.52C71.3387 406.083 62.976 400.963 57.856 395.16C53.0773 389.357 50.688 382.872 50.688 375.704C50.688 366.829 53.9307 359.661 60.416 354.2C66.9013 348.739 75.6053 346.008 86.528 346.008C93.0133 346.008 99.1573 347.373 104.96 350.104C110.421 352.835 115.371 356.419 119.808 360.856L111.104 372.632L110.08 371.608C110.08 371.267 109.909 370.755 109.568 370.072C109.568 369.048 109.227 368.195 108.544 367.512C108.203 366.488 107.52 365.635 106.496 364.952C103.765 362.221 100.523 360.173 96.768 358.808C93.3547 357.784 89.2587 357.272 84.48 357.272C78.336 357.272 73.5573 358.979 70.144 362.392C66.3893 365.805 64.512 369.901 64.512 374.68C64.512 378.435 65.1947 381.677 66.56 384.408C68.2667 387.139 71.168 389.699 75.264 392.088C79.36 394.819 85.504 397.72 93.696 400.792C104.96 405.571 112.811 410.349 117.248 415.128C121.344 420.248 123.392 426.563 123.392 434.072C123.392 439.875 122.027 445.336 119.296 450.456C116.224 455.576 111.787 459.843 105.984 463.256C99.84 466.669 92.5013 468.376 83.968 468.376ZM169 303V0.919983H184.36V303H169ZM199.72 303V0.919983H230.44V303H199.72ZM276.52 303V0.919983H322.6V303H276.52ZM237.608 406.936L227.88 417.176V466.328H214.056V347.544H229.928V349.08C229.245 349.763 228.733 350.616 228.392 351.64C228.051 352.323 227.88 353.859 227.88 356.248V402.328L277.544 347.032C280.616 347.373 283.859 347.544 287.272 347.544H292.392L247.336 398.744L295.464 466.328L278.568 466.84L237.608 406.936ZM338 303V0.919983H368.72V303H338ZM384.08 303V0.919983H430.16V303H384.08ZM445.52 303V0.919983H491.6V303H445.52ZM422.48 468.376C410.192 468.376 400.805 464.621 394.32 457.112C387.835 449.603 384.592 439.021 384.592 425.368V347.544H399.44V349.08C398.416 349.763 397.904 350.616 397.904 351.64C397.563 352.323 397.392 353.859 397.392 356.248V425.368C397.392 435.608 399.44 443.459 403.536 448.92C407.291 454.381 413.776 457.112 422.992 457.112C431.867 457.112 438.352 454.381 442.448 448.92C446.544 443.459 448.592 435.437 448.592 424.856V347.544H461.392V424.856C461.392 439.533 457.979 450.456 451.152 457.624C444.325 464.792 434.768 468.376 422.48 468.376ZM507 303V0.919983H537.72V303H507ZM583.8 303V0.919983H599.16V303H583.8ZM614.52 303V0.919983H660.6V303H614.52ZM554.616 347.544H589.432C603.085 347.544 612.984 350.616 619.128 356.76C625.613 362.563 628.856 370.925 628.856 381.848C628.856 388.675 626.637 395.16 622.2 401.304C617.763 407.448 611.96 411.544 604.792 413.592L632.44 466.328H617.592L590.968 414.104H567.928V466.328H554.616V347.544ZM590.968 402.328C599.16 402.328 605.304 400.451 609.4 396.696C613.155 393.283 615.032 388.333 615.032 381.848C615.032 375.363 613.155 370.072 609.4 365.976C605.304 362.221 599.16 360.344 590.968 360.344H567.928V402.328H590.968ZM676 303V0.919983H691.36V303H676ZM737.44 303V0.919983H752.8V303H737.44ZM798.88 303V0.919983H829.6V303H798.88ZM767.136 468.376C758.261 468.376 750.411 466.157 743.584 461.72C736.416 457.283 730.784 450.627 726.688 441.752C722.592 432.536 720.544 421.101 720.544 407.448C720.544 393.112 722.763 381.336 727.2 372.12C731.637 363.245 737.269 356.76 744.096 352.664C750.923 348.909 758.261 347.032 766.112 347.032C774.645 347.032 781.984 349.08 788.128 353.176C794.272 357.272 798.88 362.904 801.952 370.072L790.688 375.704L789.152 376.216L788.64 375.192V373.656C788.64 372.291 787.787 370.413 786.08 368.024C783.349 364.269 780.277 361.539 776.864 359.832C773.451 358.125 769.867 357.272 766.112 357.272C755.872 357.272 747.851 361.709 742.048 370.584C736.587 379.117 733.856 391.235 733.856 406.936C733.856 416.493 735.221 425.197 737.952 433.048C741.024 440.557 744.949 446.36 749.728 450.456C754.848 454.552 760.48 456.6 766.624 456.6C771.403 456.6 775.84 455.405 779.936 453.016C784.373 450.285 787.957 446.701 790.688 442.264L800.416 448.92C796.32 455.405 791.712 460.184 786.592 463.256C781.131 466.669 774.645 468.376 767.136 468.376ZM845 303V0.919983H891.08V303H845ZM906.44 303V0.919983H937.16V303H906.44ZM983.24 303V0.919983H998.6V303H983.24ZM891.592 457.112L950.984 359.832H893.64V347.544H966.856V357.272L907.976 454.552H961.736C963.784 454.552 965.32 454.381 966.344 454.04C967.027 453.699 967.88 453.187 968.904 452.504H969.928V466.328H891.592V457.112ZM1014 303V0.919983H1060.08V303H1014ZM1075.44 303V0.919983H1106.16V303H1075.44ZM1121.52 303V0.919983H1136.88V303H1121.52ZM1092.85 419.736L1055.98 347.544H1071.34L1100.53 405.4L1126.64 347.544H1140.98L1107.18 419.736V466.328H1092.85V419.736Z" fill="white"/>
<path d="M0 303H-2V305H0V303ZM0 0.919983V-1.08002H-2V0.919983H0ZM30.72 0.919983H32.72V-1.08002H30.72V0.919983ZM30.72 303V305H32.72V303H30.72ZM46.08 303H44.08V305H46.08V303ZM46.08 0.919983V-1.08002H44.08V0.919983H46.08ZM92.16 0.919983H94.16V-1.08002H92.16V0.919983ZM92.16 303V305H94.16V303H92.16ZM107.52 303H105.52V305H107.52V303ZM107.52 0.919983V-1.08002H105.52V0.919983H107.52ZM122.88 0.919983H124.88V-1.08002H122.88V0.919983ZM122.88 303V305H124.88V303H122.88ZM46.592 453.016L44.8836 451.976L44.0949 453.272L45.1299 454.381L46.592 453.016ZM53.76 441.24L55.4684 442.28L55.5859 442.087L55.6574 441.872L53.76 441.24ZM54.272 439.704L54.9045 437.807L53.0071 437.174L52.3746 439.072L54.272 439.704ZM55.808 440.216H57.808V438.774L56.4405 438.319L55.808 440.216ZM56.32 442.264H58.32V441.939L58.2174 441.632L56.32 442.264ZM57.344 444.824L59.1329 443.93L59.0772 443.818L59.0081 443.715L57.344 444.824ZM59.392 446.872L60.6936 445.353L60.6019 445.275L60.5014 445.208L59.392 446.872ZM103.424 450.456L104.66 452.029L104.693 452.002L104.726 451.975L103.424 450.456ZM108.032 426.392L106.296 427.384L106.315 427.419L106.336 427.452L108.032 426.392ZM82.944 410.52L83.7415 408.686L83.7002 408.668L83.6583 408.652L82.944 410.52ZM57.856 395.16L56.3121 396.431L56.3338 396.458L56.3563 396.483L57.856 395.16ZM60.416 354.2L59.1277 352.67L59.1277 352.67L60.416 354.2ZM104.96 350.104L105.854 348.315L105.833 348.305L105.812 348.294L104.96 350.104ZM119.808 360.856L121.416 362.045L122.44 360.66L121.222 359.442L119.808 360.856ZM111.104 372.632L109.69 374.046L111.332 375.688L112.712 373.821L111.104 372.632ZM110.08 371.608H108.08V372.436L108.666 373.022L110.08 371.608ZM109.568 370.072H107.568V370.544L107.779 370.966L109.568 370.072ZM108.544 367.512L106.647 368.144L106.796 368.592L107.13 368.926L108.544 367.512ZM106.496 364.952L105.082 366.366L105.222 366.506L105.387 366.616L106.496 364.952ZM96.768 358.808L97.4515 356.928L97.3976 356.909L97.3427 356.892L96.768 358.808ZM70.144 362.392L71.4893 363.872L71.5246 363.84L71.5582 363.806L70.144 362.392ZM66.56 384.408L64.7712 385.302L64.8136 385.387L64.864 385.468L66.56 384.408ZM75.264 392.088L76.3734 390.424L76.3235 390.391L76.2717 390.36L75.264 392.088ZM93.696 400.792L94.4771 398.951L94.438 398.934L94.3983 398.919L93.696 400.792ZM117.248 415.128L118.81 413.879L118.764 413.821L118.714 413.767L117.248 415.128ZM119.296 450.456L121.011 451.485L121.037 451.442L121.061 451.397L119.296 450.456ZM105.984 463.256L106.955 465.004L106.977 464.992L106.998 464.98L105.984 463.256ZM2 303V0.919983H-2V303H2ZM0 2.91998H30.72V-1.08002H0V2.91998ZM28.72 0.919983V303H32.72V0.919983H28.72ZM30.72 301H0V305H30.72V301ZM48.08 303V0.919983H44.08V303H48.08ZM46.08 2.91998H92.16V-1.08002H46.08V2.91998ZM90.16 0.919983V303H94.16V0.919983H90.16ZM92.16 301H46.08V305H92.16V301ZM109.52 303V0.919983H105.52V303H109.52ZM107.52 2.91998H122.88V-1.08002H107.52V2.91998ZM120.88 0.919983V303H124.88V0.919983H120.88ZM122.88 301H107.52V305H122.88V301ZM83.968 466.376C69.1028 466.376 57.1944 461.445 48.0541 451.651L45.1299 454.381C55.1043 465.067 68.1132 470.376 83.968 470.376V466.376ZM48.3004 454.056L55.4684 442.28L52.0516 440.2L44.8836 451.976L48.3004 454.056ZM55.6574 441.872L56.1694 440.336L52.3746 439.072L51.8626 440.608L55.6574 441.872ZM53.6396 441.601L55.1756 442.113L56.4405 438.319L54.9045 437.807L53.6396 441.601ZM53.808 440.216C53.808 440.645 53.9033 441.1 53.9957 441.469C54.0982 441.879 54.2433 442.359 54.4226 442.896L58.2174 441.632C58.0553 441.145 57.9445 440.772 57.8763 440.499C57.8423 440.363 57.8229 440.268 57.8128 440.207C57.8013 440.138 57.808 440.15 57.808 440.216H53.808ZM54.32 442.264C54.32 443.548 54.9308 444.81 55.6799 445.933L59.0081 443.715C58.3918 442.79 58.32 442.346 58.32 442.264H54.32ZM55.5551 445.718C56.1198 446.848 57.1284 447.767 58.2826 448.536L60.5014 445.208C59.6076 444.612 59.2508 444.166 59.1329 443.93L55.5551 445.718ZM58.0904 448.391C65.6651 454.883 75.0189 458.088 86.016 458.088V454.088C75.8505 454.088 67.4549 451.149 60.6936 445.353L58.0904 448.391ZM86.016 458.088C93.2325 458.088 99.4853 456.094 104.66 452.029L102.188 448.883C97.8053 452.327 92.4529 454.088 86.016 454.088V458.088ZM104.726 451.975C109.872 447.563 112.592 442.257 112.592 436.12H108.592C108.592 440.905 106.533 445.157 102.122 448.937L104.726 451.975ZM112.592 436.12C112.592 432.054 111.664 428.43 109.728 425.332L106.336 427.452C107.813 429.815 108.592 432.677 108.592 436.12H112.592ZM109.768 425.4C108.172 422.606 105.304 420.004 101.426 417.537L99.2783 420.911C102.91 423.222 105.161 425.4 106.296 427.384L109.768 425.4ZM101.426 417.537C97.5359 415.061 91.6175 412.11 83.7415 408.686L82.1465 412.354C89.9718 415.756 95.6588 418.608 99.2783 420.911L101.426 417.537ZM83.6583 408.652C72.1915 404.268 64.1701 399.293 59.3557 393.837L56.3563 396.483C61.7819 402.632 70.4859 407.898 82.2297 412.388L83.6583 408.652ZM59.3999 393.889C54.9005 388.425 52.688 382.384 52.688 375.704H48.688C48.688 383.36 51.2541 390.29 56.3121 396.431L59.3999 393.889ZM52.688 375.704C52.688 367.388 55.6938 360.791 61.7043 355.73L59.1277 352.67C52.1675 358.531 48.688 366.271 48.688 375.704H52.688ZM61.7043 355.73C67.7356 350.651 75.9382 348.008 86.528 348.008V344.008C75.2725 344.008 66.0671 346.826 59.1277 352.67L61.7043 355.73ZM86.528 348.008C92.7224 348.008 98.5752 349.31 104.108 351.914L105.812 348.294C99.7395 345.437 93.3043 344.008 86.528 344.008V348.008ZM104.066 351.893C109.329 354.525 114.104 357.981 118.394 362.27L121.222 359.442C116.637 354.857 111.513 351.145 105.854 348.315L104.066 351.893ZM118.2 359.667L109.496 371.443L112.712 373.821L121.416 362.045L118.2 359.667ZM112.518 371.218L111.494 370.194L108.666 373.022L109.69 374.046L112.518 371.218ZM112.08 371.608C112.08 370.757 111.706 369.876 111.357 369.178L107.779 370.966C107.923 371.255 108.009 371.463 108.055 371.6C108.077 371.668 108.085 371.703 108.087 371.712C108.089 371.723 108.08 371.684 108.08 371.608H112.08ZM111.568 370.072C111.568 368.553 111.04 367.18 109.958 366.098L107.13 368.926C107.413 369.209 107.568 369.543 107.568 370.072H111.568ZM110.441 366.88C109.94 365.375 108.945 364.181 107.605 363.288L105.387 366.616C106.095 367.088 106.465 367.601 106.647 368.144L110.441 366.88ZM107.91 363.538C104.966 360.593 101.471 358.39 97.4515 356.928L96.0845 360.688C99.5743 361.957 102.565 363.849 105.082 366.366L107.91 363.538ZM97.3427 356.892C93.6918 355.797 89.3915 355.272 84.48 355.272V359.272C89.1258 359.272 93.0176 359.771 96.1933 360.724L97.3427 356.892ZM84.48 355.272C77.9575 355.272 72.6135 357.094 68.7298 360.978L71.5582 363.806C74.5012 360.863 78.7145 359.272 84.48 359.272V355.272ZM68.7987 360.912C64.6561 364.678 62.512 369.3 62.512 374.68H66.512C66.512 370.503 68.1226 366.933 71.4893 363.872L68.7987 360.912ZM62.512 374.68C62.512 378.675 63.2387 382.238 64.7712 385.302L68.3489 383.514C67.1506 381.117 66.512 378.194 66.512 374.68H62.512ZM64.864 385.468C66.8046 388.573 70.0026 391.334 74.2563 393.816L76.2717 390.36C72.3334 388.063 69.7287 385.704 68.256 383.348L64.864 385.468ZM74.1546 393.752C78.4398 396.609 84.7508 399.574 92.9938 402.665L94.3983 398.919C86.2572 395.866 80.2802 393.028 76.3734 390.424L74.1546 393.752ZM92.9149 402.633C104.107 407.382 111.639 412.027 115.782 416.489L118.714 413.767C113.982 408.672 105.813 403.76 94.4771 398.951L92.9149 402.633ZM115.686 416.377C119.458 421.092 121.392 426.947 121.392 434.072H125.392C125.392 426.178 123.23 419.404 118.81 413.879L115.686 416.377ZM121.392 434.072C121.392 439.546 120.107 444.684 117.531 449.515L121.061 451.397C123.946 445.988 125.392 440.203 125.392 434.072H121.392ZM117.581 449.427C114.702 454.226 110.522 458.266 104.97 461.532L106.998 464.98C113.051 461.419 117.746 456.926 121.011 451.485L117.581 449.427ZM105.013 461.508C99.2232 464.724 92.2338 466.376 83.968 466.376V470.376C92.7689 470.376 100.457 468.615 106.955 465.004L105.013 461.508ZM169 303H167V305H169V303ZM169 0.919983V-1.08002H167V0.919983H169ZM184.36 0.919983H186.36V-1.08002H184.36V0.919983ZM184.36 303V305H186.36V303H184.36ZM199.72 303H197.72V305H199.72V303ZM199.72 0.919983V-1.08002H197.72V0.919983H199.72ZM230.44 0.919983H232.44V-1.08002H230.44V0.919983ZM230.44 303V305H232.44V303H230.44ZM276.52 303H274.52V305H276.52V303ZM276.52 0.919983V-1.08002H274.52V0.919983H276.52ZM322.6 0.919983H324.6V-1.08002H322.6V0.919983ZM322.6 303V305H324.6V303H322.6ZM237.608 406.936L239.259 405.807L237.862 403.765L236.158 405.559L237.608 406.936ZM227.88 417.176L226.43 415.799L225.88 416.377V417.176H227.88ZM227.88 466.328V468.328H229.88V466.328H227.88ZM214.056 466.328H212.056V468.328H214.056V466.328ZM214.056 347.544V345.544H212.056V347.544H214.056ZM229.928 347.544H231.928V345.544H229.928V347.544ZM229.928 349.08L231.342 350.494L231.928 349.908V349.08H229.928ZM228.392 351.64L230.181 352.534L230.244 352.407L230.289 352.272L228.392 351.64ZM227.88 402.328H225.88V407.548L229.368 403.664L227.88 402.328ZM277.544 347.032L277.765 345.044L276.743 344.931L276.056 345.696L277.544 347.032ZM292.392 347.544L293.893 348.865L296.816 345.544H292.392V347.544ZM247.336 398.744L245.835 397.423L244.787 398.613L245.707 399.904L247.336 398.744ZM295.464 466.328L295.525 468.327L299.262 468.214L297.093 465.168L295.464 466.328ZM278.568 466.84L276.917 467.969L277.535 468.872L278.629 468.839L278.568 466.84ZM171 303V0.919983H167V303H171ZM169 2.91998H184.36V-1.08002H169V2.91998ZM182.36 0.919983V303H186.36V0.919983H182.36ZM184.36 301H169V305H184.36V301ZM201.72 303V0.919983H197.72V303H201.72ZM199.72 2.91998H230.44V-1.08002H199.72V2.91998ZM228.44 0.919983V303H232.44V0.919983H228.44ZM230.44 301H199.72V305H230.44V301ZM278.52 303V0.919983H274.52V303H278.52ZM276.52 2.91998H322.6V-1.08002H276.52V2.91998ZM320.6 0.919983V303H324.6V0.919983H320.6ZM322.6 301H276.52V305H322.6V301ZM236.158 405.559L226.43 415.799L229.33 418.554L239.058 408.314L236.158 405.559ZM225.88 417.176V466.328H229.88V417.176H225.88ZM227.88 464.328H214.056V468.328H227.88V464.328ZM216.056 466.328V347.544H212.056V466.328H216.056ZM214.056 349.544H229.928V345.544H214.056V349.544ZM227.928 347.544V349.08H231.928V347.544H227.928ZM228.514 347.666C227.587 348.593 226.922 349.724 226.495 351.008L230.289 352.272C230.544 351.508 230.904 350.933 231.342 350.494L228.514 347.666ZM226.603 350.746C226.266 351.419 226.111 352.271 226.02 353.083C225.924 353.953 225.88 355.015 225.88 356.248H229.88C229.88 355.092 229.922 354.191 229.996 353.525C230.033 353.193 230.075 352.942 230.117 352.762C230.161 352.571 230.192 352.513 230.181 352.534L226.603 350.746ZM225.88 356.248V402.328H229.88V356.248H225.88ZM229.368 403.664L279.032 348.368L276.056 345.696L226.392 400.992L229.368 403.664ZM277.323 349.02C280.476 349.37 283.792 349.544 287.272 349.544V345.544C283.925 345.544 280.756 345.377 277.765 345.044L277.323 349.02ZM287.272 349.544H292.392V345.544H287.272V349.544ZM290.891 346.223L245.835 397.423L248.837 400.065L293.893 348.865L290.891 346.223ZM245.707 399.904L293.835 467.488L297.093 465.168L248.965 397.584L245.707 399.904ZM295.403 464.329L278.507 464.841L278.629 468.839L295.525 468.327L295.403 464.329ZM280.219 465.711L239.259 405.807L235.957 408.065L276.917 467.969L280.219 465.711ZM338 303H336V305H338V303ZM338 0.919983V-1.08002H336V0.919983H338ZM368.72 0.919983H370.72V-1.08002H368.72V0.919983ZM368.72 303V305H370.72V303H368.72ZM384.08 303H382.08V305H384.08V303ZM384.08 0.919983V-1.08002H382.08V0.919983H384.08ZM430.16 0.919983H432.16V-1.08002H430.16V0.919983ZM430.16 303V305H432.16V303H430.16ZM445.52 303H443.52V305H445.52V303ZM445.52 0.919983V-1.08002H443.52V0.919983H445.52ZM491.6 0.919983H493.6V-1.08002H491.6V0.919983ZM491.6 303V305H493.6V303H491.6ZM394.32 457.112L392.806 458.419L392.806 458.419L394.32 457.112ZM384.592 347.544V345.544H382.592V347.544H384.592ZM399.44 347.544H401.44V345.544H399.44V347.544ZM399.44 349.08L400.549 350.744L401.44 350.15V349.08H399.44ZM397.904 351.64L399.693 352.534L399.904 352.112V351.64H397.904ZM403.536 448.92L405.184 447.787L405.161 447.753L405.136 447.72L403.536 448.92ZM442.448 448.92L444.048 450.12L444.048 450.12L442.448 448.92ZM448.592 347.544V345.544H446.592V347.544H448.592ZM461.392 347.544H463.392V345.544H461.392V347.544ZM451.152 457.624L452.6 459.003L452.6 459.003L451.152 457.624ZM340 303V0.919983H336V303H340ZM338 2.91998H368.72V-1.08002H338V2.91998ZM366.72 0.919983V303H370.72V0.919983H366.72ZM368.72 301H338V305H368.72V301ZM386.08 303V0.919983H382.08V303H386.08ZM384.08 2.91998H430.16V-1.08002H384.08V2.91998ZM428.16 0.919983V303H432.16V0.919983H428.16ZM430.16 301H384.08V305H430.16V301ZM447.52 303V0.919983H443.52V303H447.52ZM445.52 2.91998H491.6V-1.08002H445.52V2.91998ZM489.6 0.919983V303H493.6V0.919983H489.6ZM491.6 301H445.52V305H491.6V301ZM422.48 466.376C410.623 466.376 401.851 462.772 395.834 455.805L392.806 458.419C399.76 466.471 409.761 470.376 422.48 470.376V466.376ZM395.834 455.805C389.763 448.775 386.592 438.722 386.592 425.368H382.592C382.592 439.321 385.907 450.43 392.806 458.419L395.834 455.805ZM386.592 425.368V347.544H382.592V425.368H386.592ZM384.592 349.544H399.44V345.544H384.592V349.544ZM397.44 347.544V349.08H401.44V347.544H397.44ZM398.331 347.416C396.879 348.384 395.904 349.806 395.904 351.64H399.904C399.904 351.426 399.953 351.142 400.549 350.744L398.331 347.416ZM396.115 350.746C395.778 351.419 395.623 352.271 395.532 353.083C395.436 353.953 395.392 355.015 395.392 356.248H399.392C399.392 355.092 399.434 354.191 399.508 353.525C399.545 353.193 399.587 352.942 399.629 352.762C399.673 352.571 399.704 352.513 399.693 352.534L396.115 350.746ZM395.392 356.248V425.368H399.392V356.248H395.392ZM395.392 425.368C395.392 435.835 397.479 444.178 401.936 450.12L405.136 447.72C401.401 442.74 399.392 435.381 399.392 425.368H395.392ZM401.888 450.053C406.15 456.252 413.396 459.112 422.992 459.112V455.112C414.156 455.112 408.431 452.51 405.184 447.787L401.888 450.053ZM422.992 459.112C432.29 459.112 439.465 456.23 444.048 450.12L440.848 447.72C437.239 452.533 431.444 455.112 422.992 455.112V459.112ZM444.048 450.12C448.512 444.169 450.592 435.647 450.592 424.856H446.592C446.592 435.228 444.576 442.749 440.848 447.72L444.048 450.12ZM450.592 424.856V347.544H446.592V424.856H450.592ZM448.592 349.544H461.392V345.544H448.592V349.544ZM459.392 347.544V424.856H463.392V347.544H459.392ZM459.392 424.856C459.392 439.264 456.038 449.594 449.704 456.245L452.6 459.003C459.92 451.318 463.392 439.803 463.392 424.856H459.392ZM449.704 456.245C443.342 462.925 434.362 466.376 422.48 466.376V470.376C435.174 470.376 445.309 466.659 452.6 459.003L449.704 456.245ZM507 303H505V305H507V303ZM507 0.919983V-1.08002H505V0.919983H507ZM537.72 0.919983H539.72V-1.08002H537.72V0.919983ZM537.72 303V305H539.72V303H537.72ZM583.8 303H581.8V305H583.8V303ZM583.8 0.919983V-1.08002H581.8V0.919983H583.8ZM599.16 0.919983H601.16V-1.08002H599.16V0.919983ZM599.16 303V305H601.16V303H599.16ZM614.52 303H612.52V305H614.52V303ZM614.52 0.919983V-1.08002H612.52V0.919983H614.52ZM660.6 0.919983H662.6V-1.08002H660.6V0.919983ZM660.6 303V305H662.6V303H660.6ZM554.616 347.544V345.544H552.616V347.544H554.616ZM619.128 356.76L617.714 358.174L617.753 358.213L617.794 358.25L619.128 356.76ZM622.2 401.304L620.579 400.133L620.579 400.133L622.2 401.304ZM604.792 413.592L604.243 411.669L601.88 412.344L603.021 414.521L604.792 413.592ZM632.44 466.328V468.328H635.747L634.211 465.399L632.44 466.328ZM617.592 466.328L615.81 467.236L616.367 468.328H617.592V466.328ZM590.968 414.104L592.75 413.196L592.193 412.104H590.968V414.104ZM567.928 414.104V412.104H565.928V414.104H567.928ZM567.928 466.328V468.328H569.928V466.328H567.928ZM554.616 466.328H552.616V468.328H554.616V466.328ZM609.4 396.696L608.055 395.216L608.049 395.222L609.4 396.696ZM609.4 365.976L610.874 364.625L610.816 364.56L610.751 364.502L609.4 365.976ZM567.928 360.344V358.344H565.928V360.344H567.928ZM567.928 402.328H565.928V404.328H567.928V402.328ZM509 303V0.919983H505V303H509ZM507 2.91998H537.72V-1.08002H507V2.91998ZM535.72 0.919983V303H539.72V0.919983H535.72ZM537.72 301H507V305H537.72V301ZM585.8 303V0.919983H581.8V303H585.8ZM583.8 2.91998H599.16V-1.08002H583.8V2.91998ZM597.16 0.919983V303H601.16V0.919983H597.16ZM599.16 301H583.8V305H599.16V301ZM616.52 303V0.919983H612.52V303H616.52ZM614.52 2.91998H660.6V-1.08002H614.52V2.91998ZM658.6 0.919983V303H662.6V0.919983H658.6ZM660.6 301H614.52V305H660.6V301ZM554.616 349.544H589.432V345.544H554.616V349.544ZM589.432 349.544C602.849 349.544 612.111 352.572 617.714 358.174L620.542 355.346C613.857 348.66 603.322 345.544 589.432 345.544V349.544ZM617.794 358.25C623.752 363.581 626.856 371.338 626.856 381.848H630.856C630.856 370.512 627.475 361.544 620.462 355.27L617.794 358.25ZM626.856 381.848C626.856 388.208 624.798 394.29 620.579 400.133L623.821 402.475C628.476 396.03 630.856 389.141 630.856 381.848H626.856ZM620.579 400.133C616.399 405.92 610.971 409.746 604.243 411.669L605.341 415.515C612.949 413.342 619.126 408.976 623.821 402.475L620.579 400.133ZM603.021 414.521L630.669 467.257L634.211 465.399L606.563 412.663L603.021 414.521ZM632.44 464.328H617.592V468.328H632.44V464.328ZM619.374 465.42L592.75 413.196L589.186 415.012L615.81 467.236L619.374 465.42ZM590.968 412.104H567.928V416.104H590.968V412.104ZM565.928 414.104V466.328H569.928V414.104H565.928ZM567.928 464.328H554.616V468.328H567.928V464.328ZM556.616 466.328V347.544H552.616V466.328H556.616ZM590.968 404.328C599.427 404.328 606.145 402.393 610.751 398.17L608.049 395.222C604.463 398.508 598.893 400.328 590.968 400.328V404.328ZM610.745 398.176C615.026 394.284 617.032 388.73 617.032 381.848H613.032C613.032 387.937 611.283 392.281 608.055 395.216L610.745 398.176ZM617.032 381.848C617.032 374.951 615.023 369.15 610.874 364.625L607.926 367.327C611.286 370.994 613.032 375.774 613.032 381.848H617.032ZM610.751 364.502C606.145 360.279 599.427 358.344 590.968 358.344V362.344C598.893 362.344 604.463 364.164 608.049 367.45L610.751 364.502ZM590.968 358.344H567.928V362.344H590.968V358.344ZM565.928 360.344V402.328H569.928V360.344H565.928ZM567.928 404.328H590.968V400.328H567.928V404.328ZM676 303H674V305H676V303ZM676 0.919983V-1.08002H674V0.919983H676ZM691.36 0.919983H693.36V-1.08002H691.36V0.919983ZM691.36 303V305H693.36V303H691.36ZM737.44 303H735.44V305H737.44V303ZM737.44 0.919983V-1.08002H735.44V0.919983H737.44ZM752.8 0.919983H754.8V-1.08002H752.8V0.919983ZM752.8 303V305H754.8V303H752.8ZM798.88 303H796.88V305H798.88V303ZM798.88 0.919983V-1.08002H796.88V0.919983H798.88ZM829.6 0.919983H831.6V-1.08002H829.6V0.919983ZM829.6 303V305H831.6V303H829.6ZM743.584 461.72L744.674 460.043L744.655 460.031L744.637 460.019L743.584 461.72ZM726.688 441.752L724.86 442.564L724.866 442.577L724.872 442.59L726.688 441.752ZM727.2 372.12L725.411 371.226L725.404 371.239L725.398 371.252L727.2 372.12ZM744.096 352.664L743.132 350.912L743.099 350.93L743.067 350.949L744.096 352.664ZM801.952 370.072L802.846 371.861L804.533 371.018L803.79 369.284L801.952 370.072ZM790.688 375.704L791.32 377.601L791.455 377.556L791.582 377.493L790.688 375.704ZM789.152 376.216L787.363 377.11L788.139 378.662L789.784 378.113L789.152 376.216ZM788.64 375.192H786.64V375.664L786.851 376.086L788.64 375.192ZM786.08 368.024L787.707 366.862L787.703 366.855L787.697 366.848L786.08 368.024ZM776.864 359.832L775.97 361.621L775.97 361.621L776.864 359.832ZM742.048 370.584L740.374 369.49L740.369 369.498L740.363 369.506L742.048 370.584ZM737.952 433.048L736.063 433.705L736.081 433.756L736.101 433.805L737.952 433.048ZM749.728 450.456L748.426 451.975L748.452 451.997L748.479 452.018L749.728 450.456ZM779.936 453.016L780.944 454.744L780.964 454.732L780.984 454.719L779.936 453.016ZM790.688 442.264L791.817 440.613L790.085 439.428L788.985 441.216L790.688 442.264ZM800.416 448.92L802.107 449.988L803.136 448.358L801.545 447.269L800.416 448.92ZM786.592 463.256L785.563 461.541L785.547 461.55L785.532 461.56L786.592 463.256ZM678 303V0.919983H674V303H678ZM676 2.91998H691.36V-1.08002H676V2.91998ZM689.36 0.919983V303H693.36V0.919983H689.36ZM691.36 301H676V305H691.36V301ZM739.44 303V0.919983H735.44V303H739.44ZM737.44 2.91998H752.8V-1.08002H737.44V2.91998ZM750.8 0.919983V303H754.8V0.919983H750.8ZM752.8 301H737.44V305H752.8V301ZM800.88 303V0.919983H796.88V303H800.88ZM798.88 2.91998H829.6V-1.08002H798.88V2.91998ZM827.6 0.919983V303H831.6V0.919983H827.6ZM829.6 301H798.88V305H829.6V301ZM767.136 466.376C758.612 466.376 751.147 464.251 744.674 460.043L742.494 463.397C749.674 468.064 757.911 470.376 767.136 470.376V466.376ZM744.637 460.019C737.853 455.82 732.462 449.491 728.504 440.914L724.872 442.59C729.106 451.763 734.979 458.745 742.531 463.421L744.637 460.019ZM728.516 440.94C724.566 432.053 722.544 420.915 722.544 407.448H718.544C718.544 421.288 720.618 433.019 724.86 442.564L728.516 440.94ZM722.544 407.448C722.544 393.299 724.736 381.847 729.002 372.988L725.398 371.252C720.789 380.825 718.544 392.925 718.544 407.448H722.544ZM728.989 373.014C733.298 364.396 738.696 358.236 745.125 354.379L743.067 350.949C735.842 355.284 729.977 362.094 725.411 371.226L728.989 373.014ZM745.06 354.416C751.589 350.825 758.596 349.032 766.112 349.032V345.032C757.927 345.032 750.256 346.993 743.132 350.912L745.06 354.416ZM766.112 349.032C774.314 349.032 781.252 350.996 787.019 354.84L789.237 351.512C782.716 347.164 774.977 345.032 766.112 345.032V349.032ZM787.019 354.84C792.821 358.709 797.186 364.027 800.114 370.86L803.79 369.284C800.574 361.781 795.723 355.835 789.237 351.512L787.019 354.84ZM801.058 368.283L789.794 373.915L791.582 377.493L802.846 371.861L801.058 368.283ZM790.056 373.807L788.52 374.319L789.784 378.113L791.32 377.601L790.056 373.807ZM790.941 375.322L790.429 374.298L786.851 376.086L787.363 377.11L790.941 375.322ZM790.64 375.192V373.656H786.64V375.192H790.64ZM790.64 373.656C790.64 371.608 789.433 369.277 787.707 366.862L784.453 369.186C786.141 371.55 786.64 372.974 786.64 373.656H790.64ZM787.697 366.848C784.819 362.889 781.514 359.921 777.758 358.043L775.97 361.621C779.041 363.156 781.88 365.649 784.463 369.2L787.697 366.848ZM777.758 358.043C774.072 356.2 770.182 355.272 766.112 355.272V359.272C769.551 359.272 772.829 360.051 775.97 361.621L777.758 358.043ZM766.112 355.272C755.169 355.272 746.53 360.074 740.374 369.49L743.722 371.678C749.171 363.345 756.575 359.272 766.112 359.272V355.272ZM740.363 369.506C734.612 378.493 731.856 391.046 731.856 406.936H735.856C735.856 391.423 738.561 379.742 743.733 371.662L740.363 369.506ZM731.856 406.936C731.856 416.684 733.249 425.614 736.063 433.705L739.841 432.391C737.194 424.781 735.856 416.303 735.856 406.936H731.856ZM736.101 433.805C739.259 441.526 743.347 447.621 748.426 451.975L751.03 448.937C746.551 445.099 742.789 439.589 739.803 432.291L736.101 433.805ZM748.479 452.018C753.928 456.377 759.994 458.6 766.624 458.6V454.6C760.966 454.6 755.768 452.727 750.977 448.894L748.479 452.018ZM766.624 458.6C771.754 458.6 776.539 457.313 780.944 454.744L778.928 451.288C775.141 453.498 771.051 454.6 766.624 454.6V458.6ZM780.984 454.719C785.688 451.825 789.497 448.016 792.391 443.312L788.985 441.216C786.418 445.387 783.059 448.746 778.888 451.313L780.984 454.719ZM789.559 443.915L799.287 450.571L801.545 447.269L791.817 440.613L789.559 443.915ZM798.725 447.852C794.75 454.146 790.349 458.669 785.563 461.541L787.621 464.971C793.075 461.699 797.89 456.665 802.107 449.988L798.725 447.852ZM785.532 461.56C780.438 464.744 774.334 466.376 767.136 466.376V470.376C774.957 470.376 781.823 468.595 787.652 464.952L785.532 461.56ZM845 303H843V305H845V303ZM845 0.919983V-1.08002H843V0.919983H845ZM891.08 0.919983H893.08V-1.08002H891.08V0.919983ZM891.08 303V305H893.08V303H891.08ZM906.44 303H904.44V305H906.44V303ZM906.44 0.919983V-1.08002H904.44V0.919983H906.44ZM937.16 0.919983H939.16V-1.08002H937.16V0.919983ZM937.16 303V305H939.16V303H937.16ZM983.24 303H981.24V305H983.24V303ZM983.24 0.919983V-1.08002H981.24V0.919983H983.24ZM998.6 0.919983H1000.6V-1.08002H998.6V0.919983ZM998.6 303V305H1000.6V303H998.6ZM891.592 457.112L889.885 456.07L889.592 456.55V457.112H891.592ZM950.984 359.832L952.691 360.874L954.548 357.832H950.984V359.832ZM893.64 359.832H891.64V361.832H893.64V359.832ZM893.64 347.544V345.544H891.64V347.544H893.64ZM966.856 347.544H968.856V345.544H966.856V347.544ZM966.856 357.272L968.567 358.308L968.856 357.83V357.272H966.856ZM907.976 454.552L906.265 453.516L904.428 456.552H907.976V454.552ZM966.344 454.04L966.976 455.937L967.111 455.892L967.238 455.829L966.344 454.04ZM968.904 452.504V450.504H968.298L967.795 450.84L968.904 452.504ZM969.928 452.504H971.928V450.504H969.928V452.504ZM969.928 466.328V468.328H971.928V466.328H969.928ZM891.592 466.328H889.592V468.328H891.592V466.328ZM847 303V0.919983H843V303H847ZM845 2.91998H891.08V-1.08002H845V2.91998ZM889.08 0.919983V303H893.08V0.919983H889.08ZM891.08 301H845V305H891.08V301ZM908.44 303V0.919983H904.44V303H908.44ZM906.44 2.91998H937.16V-1.08002H906.44V2.91998ZM935.16 0.919983V303H939.16V0.919983H935.16ZM937.16 301H906.44V305H937.16V301ZM985.24 303V0.919983H981.24V303H985.24ZM983.24 2.91998H998.6V-1.08002H983.24V2.91998ZM996.6 0.919983V303H1000.6V0.919983H996.6ZM998.6 301H983.24V305H998.6V301ZM893.299 458.154L952.691 360.874L949.277 358.79L889.885 456.07L893.299 458.154ZM950.984 357.832H893.64V361.832H950.984V357.832ZM895.64 359.832V347.544H891.64V359.832H895.64ZM893.64 349.544H966.856V345.544H893.64V349.544ZM964.856 347.544V357.272H968.856V347.544H964.856ZM965.145 356.236L906.265 453.516L909.687 455.588L968.567 358.308L965.145 356.236ZM907.976 456.552H961.736V452.552H907.976V456.552ZM961.736 456.552C963.842 456.552 965.64 456.383 966.976 455.937L965.712 452.143C965 452.38 963.726 452.552 961.736 452.552V456.552ZM967.238 455.829C968.026 455.435 968.957 454.873 970.013 454.168L967.795 450.84C966.803 451.501 966.027 451.962 965.45 452.251L967.238 455.829ZM968.904 454.504H969.928V450.504H968.904V454.504ZM967.928 452.504V466.328H971.928V452.504H967.928ZM969.928 464.328H891.592V468.328H969.928V464.328ZM893.592 466.328V457.112H889.592V466.328H893.592ZM1014 303H1012V305H1014V303ZM1014 0.919983V-1.08002H1012V0.919983H1014ZM1060.08 0.919983H1062.08V-1.08002H1060.08V0.919983ZM1060.08 303V305H1062.08V303H1060.08ZM1075.44 303H1073.44V305H1075.44V303ZM1075.44 0.919983V-1.08002H1073.44V0.919983H1075.44ZM1106.16 0.919983H1108.16V-1.08002H1106.16V0.919983ZM1106.16 303V305H1108.16V303H1106.16ZM1121.52 303H1119.52V305H1121.52V303ZM1121.52 0.919983V-1.08002H1119.52V0.919983H1121.52ZM1136.88 0.919983H1138.88V-1.08002H1136.88V0.919983ZM1136.88 303V305H1138.88V303H1136.88ZM1092.85 419.736H1094.85V419.255L1094.63 418.826L1092.85 419.736ZM1055.98 347.544V345.544H1052.72L1054.2 348.454L1055.98 347.544ZM1071.34 347.544L1073.13 346.643L1072.58 345.544H1071.34V347.544ZM1100.53 405.4L1098.74 406.301L1100.63 410.04L1102.35 406.223L1100.53 405.4ZM1126.64 347.544V345.544H1125.35L1124.82 346.721L1126.64 347.544ZM1140.98 347.544L1142.79 348.392L1144.12 345.544H1140.98V347.544ZM1107.18 419.736L1105.37 418.888L1105.18 419.291V419.736H1107.18ZM1107.18 466.328V468.328H1109.18V466.328H1107.18ZM1092.85 466.328H1090.85V468.328H1092.85V466.328ZM1016 303V0.919983H1012V303H1016ZM1014 2.91998H1060.08V-1.08002H1014V2.91998ZM1058.08 0.919983V303H1062.08V0.919983H1058.08ZM1060.08 301H1014V305H1060.08V301ZM1077.44 303V0.919983H1073.44V303H1077.44ZM1075.44 2.91998H1106.16V-1.08002H1075.44V2.91998ZM1104.16 0.919983V303H1108.16V0.919983H1104.16ZM1106.16 301H1075.44V305H1106.16V301ZM1123.52 303V0.919983H1119.52V303H1123.52ZM1121.52 2.91998H1136.88V-1.08002H1121.52V2.91998ZM1134.88 0.919983V303H1138.88V0.919983H1134.88ZM1136.88 301H1121.52V305H1136.88V301ZM1094.63 418.826L1057.77 346.634L1054.2 348.454L1091.07 420.646L1094.63 418.826ZM1055.98 349.544H1071.34V345.544H1055.98V349.544ZM1069.56 348.445L1098.74 406.301L1102.31 404.499L1073.13 346.643L1069.56 348.445ZM1102.35 406.223L1128.46 348.367L1124.82 346.721L1098.71 404.577L1102.35 406.223ZM1126.64 349.544H1140.98V345.544H1126.64V349.544ZM1139.16 346.696L1105.37 418.888L1109 420.584L1142.79 348.392L1139.16 346.696ZM1105.18 419.736V466.328H1109.18V419.736H1105.18ZM1107.18 464.328H1092.85V468.328H1107.18V464.328ZM1094.85 466.328V419.736H1090.85V466.328H1094.85Z" fill="#FF0000"/>
</svg>
