<svg width="1707" height="469" viewBox="0 0 1707 469" fill="none" xmlns="http://www.w3.org/2000/svg">
<path d="M0 303V0.919983H15.36V303H0ZM30.72 303V0.919983H76.8V303H30.72ZM92.16 303V0.919983H107.52V303H92.16ZM122.88 303V0.919983H168.96V303H122.88ZM215.04 303V0.919983H230.4V303H215.04ZM122.368 468.376C107.008 468.376 94.5493 463.256 84.992 453.016L92.16 441.24L92.672 439.704L94.208 440.216C94.208 440.557 94.3787 441.24 94.72 442.264C94.72 442.947 95.0613 443.8 95.744 444.824C96.0853 445.507 96.768 446.189 97.792 446.872C104.96 453.016 113.835 456.088 124.416 456.088C131.243 456.088 137.045 454.211 141.824 450.456C146.603 446.36 148.992 441.581 148.992 436.12C148.992 432.365 148.139 429.123 146.432 426.392C145.067 424.003 142.507 421.613 138.752 419.224C134.997 416.835 129.195 413.933 121.344 410.52C109.739 406.083 101.376 400.963 96.256 395.16C91.4773 389.357 89.088 382.872 89.088 375.704C89.088 366.829 92.3307 359.661 98.816 354.2C105.301 348.739 114.005 346.008 124.928 346.008C131.413 346.008 137.557 347.373 143.36 350.104C148.821 352.835 153.771 356.419 158.208 360.856L149.504 372.632L148.48 371.608C148.48 371.267 148.309 370.755 147.968 370.072C147.968 369.048 147.627 368.195 146.944 367.512C146.603 366.488 145.92 365.635 144.896 364.952C142.165 362.221 138.923 360.173 135.168 358.808C131.755 357.784 127.659 357.272 122.88 357.272C116.736 357.272 111.957 358.979 108.544 362.392C104.789 365.805 102.912 369.901 102.912 374.68C102.912 378.435 103.595 381.677 104.96 384.408C106.667 387.139 109.568 389.699 113.664 392.088C117.76 394.819 123.904 397.72 132.096 400.792C143.36 405.571 151.211 410.349 155.648 415.128C159.744 420.248 161.792 426.563 161.792 434.072C161.792 439.875 160.427 445.336 157.696 450.456C154.624 455.576 150.187 459.843 144.384 463.256C138.24 466.669 130.901 468.376 122.368 468.376ZM246 303V0.919983H292.08V303H246ZM307.44 303V0.919983H322.8V303H307.44ZM338.16 303V0.919983H353.52V303H338.16ZM368.88 303V0.919983H384.24V303H368.88ZM430.32 303V0.919983H476.4V303H430.32ZM353.008 406.936L343.28 417.176V466.328H329.456V347.544H345.328V349.08C344.645 349.763 344.133 350.616 343.792 351.64C343.451 352.323 343.28 353.859 343.28 356.248V402.328L392.944 347.032C396.016 347.373 399.259 347.544 402.672 347.544H407.792L362.736 398.744L410.864 466.328L393.968 466.84L353.008 406.936ZM492 303V0.919983H538.08V303H492ZM584.16 303V0.919983H599.52V303H584.16ZM614.88 303V0.919983H630.24V303H614.88ZM645.6 303V0.919983H660.96V303H645.6ZM676.32 303V0.919983H722.4V303H676.32ZM614.88 468.376C602.592 468.376 593.205 464.621 586.72 457.112C580.235 449.603 576.992 439.021 576.992 425.368V347.544H591.84V349.08C590.816 349.763 590.304 350.616 590.304 351.64C589.963 352.323 589.792 353.859 589.792 356.248V425.368C589.792 435.608 591.84 443.459 595.936 448.92C599.691 454.381 606.176 457.112 615.392 457.112C624.267 457.112 630.752 454.381 634.848 448.92C638.944 443.459 640.992 435.437 640.992 424.856V347.544H653.792V424.856C653.792 439.533 650.379 450.456 643.552 457.624C636.725 464.792 627.168 468.376 614.88 468.376ZM738 303V0.919983H784.08V303H738ZM799.44 303V0.919983H814.8V303H799.44ZM830.16 303V0.919983H845.52V303H830.16ZM860.88 303V0.919983H906.96V303H860.88ZM953.04 303V0.919983H968.4V303H953.04ZM824.016 347.544H858.832C872.485 347.544 882.384 350.616 888.528 356.76C895.013 362.563 898.256 370.925 898.256 381.848C898.256 388.675 896.037 395.16 891.6 401.304C887.163 407.448 881.36 411.544 874.192 413.592L901.84 466.328H886.992L860.368 414.104H837.328V466.328H824.016V347.544ZM860.368 402.328C868.56 402.328 874.704 400.451 878.8 396.696C882.555 393.283 884.432 388.333 884.432 381.848C884.432 375.363 882.555 370.072 878.8 365.976C874.704 362.221 868.56 360.344 860.368 360.344H837.328V402.328H860.368ZM984 303V0.919983H1030.08V303H984ZM1045.44 303V0.919983H1091.52V303H1045.44ZM1106.88 303V0.919983H1122.24V303H1106.88ZM1168.32 303V0.919983H1183.68V303H1168.32ZM1199.04 303V0.919983H1214.4V303H1199.04ZM1113.54 468.376C1104.66 468.376 1096.81 466.157 1089.98 461.72C1082.82 457.283 1077.18 450.627 1073.09 441.752C1068.99 432.536 1066.94 421.101 1066.94 407.448C1066.94 393.112 1069.16 381.336 1073.6 372.12C1078.04 363.245 1083.67 356.76 1090.5 352.664C1097.32 348.909 1104.66 347.032 1112.51 347.032C1121.05 347.032 1128.38 349.08 1134.53 353.176C1140.67 357.272 1145.28 362.904 1148.35 370.072L1137.09 375.704L1135.55 376.216L1135.04 375.192V373.656C1135.04 372.291 1134.19 370.413 1132.48 368.024C1129.75 364.269 1126.68 361.539 1123.26 359.832C1119.85 358.125 1116.27 357.272 1112.51 357.272C1102.27 357.272 1094.25 361.709 1088.45 370.584C1082.99 379.117 1080.26 391.235 1080.26 406.936C1080.26 416.493 1081.62 425.197 1084.35 433.048C1087.42 440.557 1091.35 446.36 1096.13 450.456C1101.25 454.552 1106.88 456.6 1113.02 456.6C1117.8 456.6 1122.24 455.405 1126.34 453.016C1130.77 450.285 1134.36 446.701 1137.09 442.264L1146.82 448.92C1142.72 455.405 1138.11 460.184 1132.99 463.256C1127.53 466.669 1121.05 468.376 1113.54 468.376ZM1230 303V0.919983H1245.36V303H1230ZM1291.44 303V0.919983H1337.52V303H1291.44ZM1352.88 303V0.919983H1398.96V303H1352.88ZM1414.32 303V0.919983H1429.68V303H1414.32ZM1445.04 303V0.919983H1460.4V303H1445.04ZM1314.99 457.112L1374.38 359.832H1317.04V347.544H1390.26V357.272L1331.38 454.552H1385.14C1387.18 454.552 1388.72 454.381 1389.74 454.04C1390.43 453.699 1391.28 453.187 1392.3 452.504H1393.33V466.328H1314.99V457.112ZM1476 303V0.919983H1522.08V303H1476ZM1568.16 303V0.919983H1583.52V303H1568.16ZM1598.88 303V0.919983H1644.96V303H1598.88ZM1660.32 303V0.919983H1675.68V303H1660.32ZM1691.04 303V0.919983H1706.4V303H1691.04ZM1593.25 419.736L1556.38 347.544H1571.74L1600.93 405.4L1627.04 347.544H1641.38L1607.58 419.736V466.328H1593.25V419.736Z" fill="white"/>
</svg>
