<svg width="1618" height="1491" viewBox="0 0 1618 1491" fill="none" xmlns="http://www.w3.org/2000/svg">
<path d="M29.262 0.210083H0.382828V1083.36H29.262V0.210083Z" fill="white"/>
<path d="M58.1412 0.210083H43.7016V1083.36H58.1412V0.210083Z" fill="white"/>
<path d="M101.46 0.210083H87.0204V1083.36H101.46V0.210083Z" fill="white"/>
<path d="M188.097 0.210083H159.218V1083.36H188.097V0.210083Z" fill="white"/>
<path d="M245.856 0.210083H202.537V1083.36H245.856V0.210083Z" fill="white"/>
<path d="M274.735 0.210083H260.295V1083.36H274.735V0.210083Z" fill="white"/>
<path d="M332.493 0.210083H318.054V1083.36H332.493V0.210083Z" fill="white"/>
<path d="M375.812 0.210083H346.933V1083.36H375.812V0.210083Z" fill="white"/>
<path d="M462.45 0.210083H419.131V1083.36H462.45V0.210083Z" fill="white"/>
<path d="M505.769 0.210083H476.889V1083.36H505.769V0.210083Z" fill="white"/>
<path d="M563.527 0.210083H520.208V1083.36H563.527V0.210083Z" fill="white"/>
<path d="M621.285 0.210083H577.966V1083.36H621.285V0.210083Z" fill="white"/>
<path d="M664.604 0.210083H635.725V1083.36H664.604V0.210083Z" fill="white"/>
<path d="M722.362 0.210083H707.923V1083.36H722.362V0.210083Z" fill="white"/>
<path d="M780.121 0.210083H736.802V1083.36H780.121V0.210083Z" fill="white"/>
<path d="M809 0.210083H794.56V1083.36H809V0.210083Z" fill="white"/>
<path d="M866.758 0.210083H852.319V1083.36H866.758V0.210083Z" fill="white"/>
<path d="M938.956 0.210083H910.077V1083.36H938.956V0.210083Z" fill="white"/>
<path d="M996.715 0.210083H953.396V1083.36H996.715V0.210083Z" fill="white"/>
<path d="M1040.03 0.210083H1011.15V1083.36H1040.03V0.210083Z" fill="white"/>
<path d="M1097.79 0.210083H1083.35V1083.36H1097.79V0.210083Z" fill="white"/>
<path d="M1155.55 0.210083H1112.23V1083.36H1155.55V0.210083Z" fill="white"/>
<path d="M1198.87 0.210083H1169.99V1083.36H1198.87V0.210083Z" fill="white"/>
<path d="M1227.75 0.210083H1213.31V1083.36H1227.75V0.210083Z" fill="white"/>
<path d="M1285.51 0.210083H1271.07V1083.36H1285.51V0.210083Z" fill="white"/>
<path d="M1314.39 0.210083H1299.95V1083.36H1314.39V0.210083Z" fill="white"/>
<path d="M1401.02 0.210083H1343.26V1083.36H1401.02V0.210083Z" fill="white"/>
<path d="M1458.78 0.210083H1429.9V1083.36H1458.78V0.210083Z" fill="white"/>
<path d="M1545.42 0.210083H1502.1V1083.36H1545.42V0.210083Z" fill="white"/>
<path d="M1574.3 0.210083H1559.86V1083.36H1574.3V0.210083Z" fill="white"/>
<path d="M1617.62 0.210083H1588.74V1083.36H1617.62V0.210083Z" fill="white"/>
<path d="M188.115 1341.26C188.115 1336.84 187.436 1332.88 186.076 1329.37C184.83 1325.74 182.451 1322.46 178.939 1319.51C175.428 1316.45 170.5 1313.45 164.156 1310.5C157.812 1307.56 149.6 1304.5 139.518 1301.33C128.303 1297.7 117.654 1293.62 107.572 1289.09C97.6035 1284.56 88.7676 1279.29 81.0645 1273.29C73.4746 1267.17 67.4707 1260.09 63.0527 1252.05C58.748 1244.01 56.5957 1234.66 56.5957 1224.01C56.5957 1213.71 58.8613 1204.36 63.3926 1195.98C67.9238 1187.48 74.2676 1180.23 82.4238 1174.23C90.5801 1168.11 100.209 1163.41 111.311 1160.12C122.525 1156.84 134.816 1155.2 148.184 1155.2C166.422 1155.2 182.338 1158.48 195.932 1165.05C209.525 1171.62 220.061 1180.63 227.537 1192.07C235.127 1203.51 238.922 1216.59 238.922 1231.32H188.285C188.285 1224.07 186.756 1217.73 183.697 1212.29C180.752 1206.74 176.221 1202.38 170.104 1199.21C164.1 1196.03 156.51 1194.45 147.334 1194.45C138.498 1194.45 131.135 1195.81 125.244 1198.53C119.354 1201.13 114.936 1204.7 111.99 1209.23C109.045 1213.65 107.572 1218.63 107.572 1224.18C107.572 1228.38 108.592 1232.17 110.631 1235.57C112.783 1238.97 115.955 1242.14 120.146 1245.08C124.338 1248.03 129.492 1250.8 135.609 1253.41C141.727 1256.02 148.807 1258.56 156.85 1261.06C170.33 1265.13 182.168 1269.72 192.363 1274.82C202.672 1279.92 211.281 1285.64 218.191 1291.98C225.102 1298.33 230.312 1305.52 233.824 1313.56C237.336 1321.61 239.092 1330.72 239.092 1340.92C239.092 1351.68 236.996 1361.31 232.805 1369.81C228.613 1378.3 222.553 1385.5 214.623 1391.39C206.693 1397.28 197.234 1401.75 186.246 1404.81C175.258 1407.87 162.967 1409.4 149.373 1409.4C137.139 1409.4 125.074 1407.81 113.18 1404.64C101.285 1401.36 90.4668 1396.43 80.7246 1389.86C71.0957 1383.29 63.3926 1374.9 57.6152 1364.71C51.8379 1354.51 48.9492 1342.45 48.9492 1328.52H100.096C100.096 1336.22 101.285 1342.73 103.664 1348.06C106.043 1353.38 109.385 1357.69 113.689 1360.97C118.107 1364.26 123.318 1366.63 129.322 1368.11C135.439 1369.58 142.123 1370.32 149.373 1370.32C158.209 1370.32 165.459 1369.07 171.123 1366.58C176.9 1364.09 181.148 1360.63 183.867 1356.21C186.699 1351.79 188.115 1346.81 188.115 1341.26ZM324.732 1158.59V1406H273.756V1158.59H324.732ZM472.904 1158.59L374.859 1280.77L318.275 1341.6L309.1 1293.34L347.332 1241.01L410.373 1158.59H472.904ZM414.961 1406L342.064 1291.64L379.787 1260.04L475.283 1406H414.961ZM631.611 1158.59H682.418V1322.06C682.418 1341.09 678.34 1357.12 670.184 1370.15C662.141 1383.17 650.982 1392.97 636.709 1399.54C622.549 1406.11 606.236 1409.4 587.771 1409.4C569.307 1409.4 552.881 1406.11 538.494 1399.54C524.221 1392.97 513.006 1383.17 504.85 1370.15C496.807 1357.12 492.785 1341.09 492.785 1322.06V1158.59H543.762V1322.06C543.762 1333.16 545.518 1342.22 549.029 1349.25C552.541 1356.27 557.582 1361.42 564.152 1364.71C570.836 1367.99 578.709 1369.64 587.771 1369.64C597.061 1369.64 604.934 1367.99 611.391 1364.71C617.961 1361.42 622.945 1356.27 626.344 1349.25C629.855 1342.22 631.611 1333.16 631.611 1322.06V1158.59ZM724.389 1158.59H816.656C835.574 1158.59 851.83 1161.43 865.424 1167.09C879.131 1172.75 889.666 1181.14 897.029 1192.24C904.393 1203.34 908.074 1216.99 908.074 1233.19C908.074 1246.44 905.809 1257.83 901.277 1267.34C896.859 1276.75 890.572 1284.62 882.416 1290.96C874.373 1297.19 864.914 1302.18 854.039 1305.92L837.896 1314.41H757.693L757.354 1274.65H816.996C825.945 1274.65 833.365 1273.06 839.256 1269.89C845.146 1266.72 849.564 1262.3 852.51 1256.64C855.568 1250.97 857.098 1244.4 857.098 1236.93C857.098 1229 855.625 1222.14 852.68 1216.37C849.734 1210.59 845.26 1206.17 839.256 1203.11C833.252 1200.05 825.719 1198.53 816.656 1198.53H775.365V1406H724.389V1158.59ZM862.705 1406L806.291 1295.72L860.156 1295.38L917.25 1403.62V1406H862.705ZM1090.74 1323.93H1141.55C1140.53 1340.58 1135.94 1355.36 1127.78 1368.28C1119.74 1381.19 1108.47 1391.27 1093.97 1398.52C1079.58 1405.77 1062.25 1409.4 1041.97 1409.4C1026.11 1409.4 1011.9 1406.68 999.322 1401.24C986.748 1395.69 975.986 1387.76 967.037 1377.45C958.201 1367.14 951.461 1354.68 946.816 1340.07C942.172 1325.46 939.85 1309.09 939.85 1290.96V1273.8C939.85 1255.68 942.229 1239.31 946.986 1224.69C951.857 1209.97 958.768 1197.45 967.717 1187.14C976.779 1176.83 987.598 1168.9 1000.17 1163.35C1012.75 1157.8 1026.79 1155.03 1042.31 1155.03C1062.93 1155.03 1080.32 1158.76 1094.48 1166.24C1108.75 1173.72 1119.8 1184.03 1127.61 1197.17C1135.54 1210.31 1140.3 1225.26 1141.89 1242.03H1090.91C1090.34 1232.06 1088.36 1223.62 1084.96 1216.71C1081.56 1209.68 1076.41 1204.42 1069.5 1200.9C1062.7 1197.28 1053.64 1195.47 1042.31 1195.47C1033.82 1195.47 1026.4 1197.05 1020.05 1200.22C1013.71 1203.4 1008.38 1208.21 1004.08 1214.67C999.775 1221.12 996.547 1229.28 994.395 1239.14C992.355 1248.88 991.336 1260.32 991.336 1273.46V1290.96C991.336 1303.76 992.299 1315.04 994.225 1324.78C996.15 1334.41 999.096 1342.56 1003.06 1349.25C1007.14 1355.82 1012.35 1360.8 1018.69 1364.2C1025.15 1367.48 1032.91 1369.13 1041.97 1369.13C1052.62 1369.13 1061.4 1367.43 1068.31 1364.03C1075.22 1360.63 1080.49 1355.59 1084.11 1348.91C1087.85 1342.22 1090.06 1333.9 1090.74 1323.93ZM1353.95 1366.24V1406H1178.59V1366.24H1353.95ZM1351.4 1186.97L1201.19 1406H1165.34V1376.77L1316.74 1158.59H1351.4V1186.97ZM1333.9 1158.59V1198.53H1165.51V1158.59H1333.9ZM1420.39 1158.59L1472.04 1271.42L1523.7 1158.59H1579.27L1497.87 1315.94V1406H1446.22V1315.94L1364.65 1158.59H1420.39Z" fill="white"/>
</svg>
