<?xml version="1.0" standalone="no"?>
<svg xmlns:xlink="http://www.w3.org/1999/xlink" id="wave" style="transform:rotate(0deg); transition: 0.3s" viewBox="0 0 1440 150" version="1.1" xmlns="http://www.w3.org/2000/svg"><defs><linearGradient id="sw-gradient-0" x1="0" x2="0" y1="1" y2="0"><stop stop-color="rgba(240, 89, 65, 1)" offset="0%"/><stop stop-color="rgba(240, 89, 65, 1)" offset="100%"/></linearGradient></defs><path style="transform:translate(0, 0px); opacity:1" fill="url(#sw-gradient-0)" d="M0,105L17.1,110C34.3,115,69,125,103,130C137.1,135,171,135,206,112.5C240,90,274,45,309,22.5C342.9,0,377,0,411,15C445.7,30,480,60,514,80C548.6,100,583,110,617,110C651.4,110,686,100,720,92.5C754.3,85,789,80,823,70C857.1,60,891,45,926,47.5C960,50,994,70,1029,65C1062.9,60,1097,30,1131,22.5C1165.7,15,1200,30,1234,37.5C1268.6,45,1303,45,1337,60C1371.4,75,1406,105,1440,115C1474.3,125,1509,115,1543,115C1577.1,115,1611,125,1646,120C1680,115,1714,95,1749,90C1782.9,85,1817,95,1851,92.5C1885.7,90,1920,75,1954,70C1988.6,65,2023,70,2057,62.5C2091.4,55,2126,35,2160,25C2194.3,15,2229,15,2263,27.5C2297.1,40,2331,65,2366,70C2400,75,2434,60,2451,52.5L2468.6,45L2468.6,150L2451.4,150C2434.3,150,2400,150,2366,150C2331.4,150,2297,150,2263,150C2228.6,150,2194,150,2160,150C2125.7,150,2091,150,2057,150C2022.9,150,1989,150,1954,150C1920,150,1886,150,1851,150C1817.1,150,1783,150,1749,150C1714.3,150,1680,150,1646,150C1611.4,150,1577,150,1543,150C1508.6,150,1474,150,1440,150C1405.7,150,1371,150,1337,150C1302.9,150,1269,150,1234,150C1200,150,1166,150,1131,150C1097.1,150,1063,150,1029,150C994.3,150,960,150,926,150C891.4,150,857,150,823,150C788.6,150,754,150,720,150C685.7,150,651,150,617,150C582.9,150,549,150,514,150C480,150,446,150,411,150C377.1,150,343,150,309,150C274.3,150,240,150,206,150C171.4,150,137,150,103,150C68.6,150,34,150,17,150L0,150Z"/></svg>