<?xml version="1.0" standalone="no"?><svg xmlns="http://www.w3.org/2000/svg" viewBox="0 0 1440 320"><path fill="#BE3144" fill-opacity="0.5" d="M0,224L30,234.7C60,245,120,267,180,240C240,213,300,139,360,122.7C420,107,480,149,540,170.7C600,192,660,192,720,197.3C780,203,840,213,900,224C960,235,1020,245,1080,250.7C1140,256,1200,256,1260,229.3C1320,203,1380,149,1410,122.7L1440,96L1440,320L1410,320C1380,320,1320,320,1260,320C1200,320,1140,320,1080,320C1020,320,960,320,900,320C840,320,780,320,720,320C660,320,600,320,540,320C480,320,420,320,360,320C300,320,240,320,180,320C120,320,60,320,30,320L0,320Z"></path></svg>