<?xml version="1.0" standalone="no"?>
<svg xmlns:xlink="http://www.w3.org/1999/xlink" id="wave" style="transform:rotate(0deg); transition: 0.3s" viewBox="0 0 1440 200" version="1.1" xmlns="http://www.w3.org/2000/svg"><defs><linearGradient id="sw-gradient-0" x1="0" x2="0" y1="1" y2="0"><stop stop-color="rgba(190, 49, 68, 1)" offset="0%"/><stop stop-color="rgba(190, 49, 68, 1)" offset="100%"/></linearGradient></defs><path style="transform:translate(0, 0px); opacity:1" fill="url(#sw-gradient-0)" d="M0,140L40,146.7C80,153,160,167,240,173.3C320,180,400,180,480,150C560,120,640,60,720,30C800,0,880,0,960,20C1040,40,1120,80,1200,106.7C1280,133,1360,147,1440,146.7C1520,147,1600,133,1680,123.3C1760,113,1840,107,1920,93.3C2000,80,2080,60,2160,63.3C2240,67,2320,93,2400,86.7C2480,80,2560,40,2640,30C2720,20,2800,40,2880,50C2960,60,3040,60,3120,80C3200,100,3280,140,3360,153.3C3440,167,3520,153,3600,153.3C3680,153,3760,167,3840,160C3920,153,4000,127,4080,120C4160,113,4240,127,4320,123.3C4400,120,4480,100,4560,93.3C4640,87,4720,93,4800,83.3C4880,73,4960,47,5040,33.3C5120,20,5200,20,5280,36.7C5360,53,5440,87,5520,93.3C5600,100,5680,80,5720,70L5760,60L5760,200L5720,200C5680,200,5600,200,5520,200C5440,200,5360,200,5280,200C5200,200,5120,200,5040,200C4960,200,4880,200,4800,200C4720,200,4640,200,4560,200C4480,200,4400,200,4320,200C4240,200,4160,200,4080,200C4000,200,3920,200,3840,200C3760,200,3680,200,3600,200C3520,200,3440,200,3360,200C3280,200,3200,200,3120,200C3040,200,2960,200,2880,200C2800,200,2720,200,2640,200C2560,200,2480,200,2400,200C2320,200,2240,200,2160,200C2080,200,2000,200,1920,200C1840,200,1760,200,1680,200C1600,200,1520,200,1440,200C1360,200,1280,200,1200,200C1120,200,1040,200,960,200C880,200,800,200,720,200C640,200,560,200,480,200C400,200,320,200,240,200C160,200,80,200,40,200L0,200Z"/></svg>