<svg width="3840" height="324" viewBox="0 0 3840 324" fill="none" xmlns="http://www.w3.org/2000/svg">
<g clip-path="url(#clip0_109_9)">
<path d="M3840.04 226.021L3783.1 220.657C3726.16 214.887 3612.28 204.765 3498.4 215.191C3384.52 226.021 3270.64 258.411 3156.76 236.852C3042.88 214.887 2929 139.985 2815.12 101.825C2701.25 64.0698 2587.37 64.0698 2473.49 91.0954C2359.61 117.716 2338.94 130.156 2282 156.777V257.208V323.192C2282 323.192 2359.61 323.192 2473.49 323.192C2587.37 323.192 2701.25 323.192 2815.12 323.192C2929 323.192 3042.88 323.192 3156.76 323.192C3270.64 323.192 3384.52 323.192 3498.4 323.192C3612.28 323.192 3726.16 323.192 3783.1 323.192H3840.04V226.021Z" fill="#BE3144" fill-opacity="0.5"/>
<path d="M1919.96 226.021L1863.03 220.657C1806.09 214.887 1692.21 204.765 1578.33 215.191C1464.45 226.021 1350.57 258.411 1236.69 236.852C1122.81 214.887 1008.93 139.985 895.054 101.825C781.175 64.0698 667.296 64.0698 553.417 91.0954C439.538 117.716 418.869 130.156 361.929 156.777V257.208V323.192C361.929 323.192 439.538 323.192 553.417 323.192C667.296 323.192 781.175 323.192 895.054 323.192C1008.93 323.192 1122.81 323.192 1236.69 323.192C1350.57 323.192 1464.45 323.192 1578.33 323.192C1692.21 323.192 1806.09 323.192 1863.03 323.192H1919.96V226.021Z" fill="#BE3144" fill-opacity="0.5"/>
<path d="M-0.0357056 226.798C82.128 237.833 195.893 228.517 245.26 208.577L361.929 157.488V323.854H-0.0357056V226.798Z" fill="#BE3144" fill-opacity="0.5"/>
<path d="M1920 226.31C2002.16 237.345 2115.93 228.03 2165.3 208.089L2281.96 157V323.367H1920V226.31Z" fill="#BE3144" fill-opacity="0.5"/>
</g>
<defs>
<clipPath id="clip0_109_9">
<rect width="3840" height="324" fill="white" transform="matrix(-1 0 0 1 3840 0)"/>
</clipPath>
</defs>
</svg>
