<svg width="1920" height="324" viewBox="0 0 1920 324" fill="none" xmlns="http://www.w3.org/2000/svg">
<g clip-path="url(#clip0_109_3)">
<path d="M0 226.732L56.9395 221.367C113.879 215.598 227.758 205.476 341.637 215.901C455.516 226.732 569.395 259.122 683.274 237.562C797.153 215.598 911.032 140.695 1024.91 102.535C1138.79 64.7805 1252.67 64.7805 1366.55 91.8061C1480.43 118.427 1501.1 130.867 1558.04 157.488V257.919V323.903C1558.04 323.903 1480.43 323.903 1366.55 323.903C1252.67 323.903 1138.79 323.903 1024.91 323.903C911.032 323.903 797.153 323.903 683.274 323.903C569.395 323.903 455.516 323.903 341.637 323.903C227.758 323.903 113.879 323.903 56.9395 323.903H0V226.732Z" fill="#F05941" fill-opacity="0.5"/>
<path d="M1920 226.798C1837.84 237.833 1724.07 228.517 1674.7 208.577L1558.04 157.488V323.854H1920V226.798Z" fill="#F05941" fill-opacity="0.5"/>
</g>
<defs>
<clipPath id="clip0_109_3">
<rect width="1920" height="324" fill="white"/>
</clipPath>
</defs>
</svg>
