<svg width="3840" height="324" viewBox="0 0 3840 324" fill="none" xmlns="http://www.w3.org/2000/svg">
<g clip-path="url(#clip0_109_3)">
<path d="M3839.96 227.31C3757.8 238.345 3644.04 229.03 3594.67 209.089L3478 158V324.367H3839.96V227.31Z" fill="#F05941" fill-opacity="0.5"/>
<path d="M0 226.732L56.9395 221.367C113.879 215.598 227.758 205.476 341.637 215.901C455.516 226.732 569.395 259.122 683.274 237.562C797.153 215.598 911.032 140.695 1024.91 102.535C1138.79 64.7805 1252.67 64.7805 1366.55 91.8061C1480.43 118.427 1501.1 130.867 1558.04 157.488V257.919V323.903C1558.04 323.903 1480.43 323.903 1366.55 323.903C1252.67 323.903 1138.79 323.903 1024.91 323.903C911.032 323.903 797.153 323.903 683.274 323.903C569.395 323.903 455.516 323.903 341.637 323.903C227.758 323.903 113.879 323.903 56.9395 323.903H0V226.732Z" fill="#F05941" fill-opacity="0.5"/>
<path d="M1920 227.021L1976.94 221.657C2033.88 215.887 2147.76 205.765 2261.64 216.191C2375.52 227.021 2489.4 259.411 2603.27 237.852C2717.15 215.887 2831.03 140.985 2944.91 102.825C3058.79 65.0698 3172.67 65.0698 3286.55 92.0954C3400.43 118.716 3421.1 131.156 3478.04 157.777V258.208V324.192C3478.04 324.192 3400.43 324.192 3286.55 324.192C3172.67 324.192 3058.79 324.192 2944.91 324.192C2831.03 324.192 2717.15 324.192 2603.27 324.192C2489.4 324.192 2375.52 324.192 2261.64 324.192C2147.76 324.192 2033.88 324.192 1976.94 324.192H1920V227.021Z" fill="#F05941" fill-opacity="0.5"/>
<path d="M1920 226.798C1837.84 237.833 1724.07 228.517 1674.7 208.577L1558.04 157.488V323.854H1920V226.798Z" fill="#F05941" fill-opacity="0.5"/>
</g>
<defs>
<clipPath id="clip0_109_3">
<rect width="3840" height="324" fill="white"/>
</clipPath>
</defs>
</svg>
